<?xml version="1.0" encoding="utf-8"?>
<!-- Generator: Adobe Illustrator 24.3.0, SVG Export Plug-In . SVG Version: 6.00 Build 0)  -->
<svg version="1.1" id="Layer_1" xmlns="http://www.w3.org/2000/svg" xmlns:xlink="http://www.w3.org/1999/xlink" x="0px" y="0px"
	 viewBox="0 0 32 32" style="enable-background:new 0 0 32 32;" xml:space="preserve">
<style type="text/css">
	.st0{display:none;}
	.st1{display:inline;fill:none;stroke:#FBF9F6;stroke-width:3;stroke-linecap:round;stroke-linejoin:round;}
	.st2{fill-rule:evenodd;clip-rule:evenodd;fill:#FBF9F6;}
</style>
<g class="st0">
	<path id="Path_54" class="st1" d="M13.4,28.5c0,0.7-0.6,1.3-1.3,1.3c-0.7,0-1.3-0.6-1.3-1.3c0-0.7,0.6-1.3,1.3-1.3l0,0
		C12.8,27.2,13.4,27.8,13.4,28.5z"/>
	<path id="Path_55" class="st1" d="M27.9,28.5c0,0.7-0.6,1.3-1.3,1.3c-0.7,0-1.3-0.6-1.3-1.3c0-0.7,0.6-1.3,1.3-1.3l0,0
		C27.3,27.2,27.9,27.8,27.9,28.5z"/>
	<path id="Path_56" class="st1" d="M1.5,2.2h5.3l3.5,17.7c0.2,1.3,1.4,2.1,2.6,2.1h12.8c1.3,0,2.4-0.9,2.6-2.1l2.1-11.1H8.1"/>
</g>
<g id="Icon_feather-search" transform="translate(-3 -3)" class="st0">
	<path id="Path_57" class="st1" d="M30.3,17.4c0,7.1-5.8,12.9-12.9,12.9S4.5,24.5,4.5,17.4S10.3,4.5,17.4,4.5S30.3,10.3,30.3,17.4z"
		/>
	<path id="Path_58" class="st1" d="M33.5,33.5l-7-7"/>
</g>
<g>
	<path class="st2" d="M30.5,17.5h-29C0.7,17.5,0,16.8,0,16v0c0-0.8,0.7-1.5,1.5-1.5h29c0.8,0,1.5,0.7,1.5,1.5v0
		C32,16.8,31.3,17.5,30.5,17.5z"/>
	<path class="st2" d="M30.5,29.5h-29C0.7,29.5,0,28.8,0,28v0c0-0.8,0.7-1.5,1.5-1.5h29c0.8,0,1.5,0.7,1.5,1.5v0
		C32,28.8,31.3,29.5,30.5,29.5z"/>
	<path class="st2" d="M30.5,5.5h-29C0.7,5.5,0,4.8,0,4v0c0-0.8,0.7-1.5,1.5-1.5h29C31.3,2.5,32,3.2,32,4v0C32,4.8,31.3,5.5,30.5,5.5
		z"/>
</g>
</svg>
