<?xml version="1.0" encoding="utf-8"?>
<!-- Generator: Adobe Illustrator 24.3.0, SVG Export Plug-In . SVG Version: 6.00 Build 0)  -->
<svg version="1.1" xmlns="http://www.w3.org/2000/svg" xmlns:xlink="http://www.w3.org/1999/xlink" x="0px" y="0px"
	 viewBox="0 0 32 32" style="enable-background:new 0 0 32 32;" xml:space="preserve">
<style type="text/css">
	.st0{display:none;}
	.st1{display:inline;fill:#F38F1A;}
	.st2{display:inline;}
	.st3{fill:#FBF9F6;}
	.st4{fill:#FCFAF7;}
	.st5{display:inline;fill-rule:evenodd;clip-rule:evenodd;fill:#FBF9F6;}
	.st6{fill-rule:evenodd;clip-rule:evenodd;fill:#FBF9F6;}
</style>
<g id="Layer_2" class="st0">
	<rect x="0" y="0" class="st1" width="32" height="32"/>
</g>
<g id="Layer_1">
	<g class="st0">
		<g id="Path_54" class="st2">
			<path class="st3" d="M12,31.3c-1.6,0-2.8-1.3-2.8-2.8s1.3-2.8,2.8-2.8s2.8,1.3,2.8,2.8S13.6,31.3,12,31.3z"/>
		</g>
		<g id="Path_55" class="st2">
			<path class="st3" d="M26.5,31.3c-1.6,0-2.8-1.3-2.8-2.8s1.3-2.8,2.8-2.8s2.8,1.3,2.8,2.8S28.1,31.3,26.5,31.3z"/>
		</g>
		<g id="Path_56" class="st2">
			<path class="st3" d="M12.9,23.4c-1.9,0-3.6-1.4-4-3.3l-2.2-11c0,0,0-0.1,0-0.1L5.5,3.7h-4C0.7,3.7,0,3,0,2.2s0.7-1.5,1.5-1.5h5.3
				c0.7,0,1.3,0.5,1.5,1.2l1.1,5.4h21.2c0.4,0,0.9,0.2,1.2,0.5C31.9,8.1,32.1,8.6,32,9l-2.1,11.1c-0.4,2-2.1,3.4-4.1,3.3L12.9,23.4
				C12.9,23.4,12.9,23.4,12.9,23.4z M9.9,10.2l1.9,9.3c0.1,0.5,0.6,0.9,1.1,0.9h12.8c0.6,0,1.1-0.4,1.2-0.9l1.8-9.3H9.9z"/>
		</g>
	</g>
	<g id="Icon_feather-search" transform="translate(-3 -3)" class="st0">
		<g id="Path_57" class="st2">
			<path class="st4" d="M17.4,31.8C9.5,31.8,3,25.3,3,17.4C3,9.5,9.5,3,17.4,3c7.9,0,14.4,6.5,14.4,14.4
				C31.8,25.3,25.3,31.8,17.4,31.8z M17.4,6C11.1,6,6,11.1,6,17.4c0,6.3,5.1,11.4,11.4,11.4c6.3,0,11.4-5.1,11.4-11.4
				C28.8,11.1,23.7,6,17.4,6z"/>
		</g>
		<g id="Path_58" class="st2">
			<path class="st4" d="M33.5,35c-0.4,0-0.8-0.1-1.1-0.4l-7-7c-0.6-0.6-0.6-1.5,0-2.1s1.5-0.6,2.1,0l7,7c0.6,0.6,0.6,1.5,0,2.1
				C34.3,34.9,33.9,35,33.5,35z"/>
		</g>
	</g>
	<g class="st0">
		<path class="st5" d="M30.5,17.5h-29C0.7,17.5,0,16.8,0,16v0c0-0.8,0.7-1.5,1.5-1.5h29c0.8,0,1.5,0.7,1.5,1.5v0
			C32,16.8,31.3,17.5,30.5,17.5z"/>
		<path class="st5" d="M30.5,29.5h-29C0.7,29.5,0,28.8,0,28v0c0-0.8,0.7-1.5,1.5-1.5h29c0.8,0,1.5,0.7,1.5,1.5v0
			C32,28.8,31.3,29.5,30.5,29.5z"/>
		<path class="st5" d="M30.5,5.5h-29C0.7,5.5,0,4.8,0,4v0c0-0.8,0.7-1.5,1.5-1.5h29C31.3,2.5,32,3.2,32,4v0
			C32,4.8,31.3,5.5,30.5,5.5z"/>
	</g>
	<g>
		<path class="st6" d="M27.3,27.3L27.3,27.3c0.6-0.6,0.6-1.5,0-2.1L6.8,4.7c-0.6-0.6-1.5-0.6-2.1,0l0,0c-0.6,0.6-0.6,1.5,0,2.1
			l20.5,20.5C25.8,27.9,26.7,27.9,27.3,27.3z"/>
		<path class="st6" d="M27.3,4.7L27.3,4.7c-0.6-0.6-1.5-0.6-2.1,0L4.7,25.2c-0.6,0.6-0.6,1.5,0,2.1l0,0c0.6,0.6,1.5,0.6,2.1,0
			L27.3,6.8C27.9,6.2,27.9,5.3,27.3,4.7z"/>
	</g>
</g>
</svg>
