<?xml version="1.0" encoding="utf-8"?>
<!-- Generator: Adobe Illustrator 24.3.0, SVG Export Plug-In . SVG Version: 6.00 Build 0)  -->
<svg version="1.1" id="Layer_1" xmlns="http://www.w3.org/2000/svg" xmlns:xlink="http://www.w3.org/1999/xlink" x="0px" y="0px"
	 viewBox="0 0 32 32" style="enable-background:new 0 0 32 32;" xml:space="preserve">
<style type="text/css">
	.st0{fill:#0A3641;}
</style>
<path id="Path_112" class="st0" d="M27.6,29.1H4.4C2,29.1,0,27.3,0,24.9c0-0.1,0-0.1,0-0.2V7.3C0,4.9,1.8,3,4.2,2.9
	c0.1,0,0.1,0,0.2,0h23.3C30,2.9,32,4.7,32,7.1c0,0.1,0,0.1,0,0.2v17.5c0,2.4-1.8,4.3-4.2,4.4C27.7,29.1,27.7,29.1,27.6,29.1z
	 M4.4,5.8C3.6,5.8,3,6.3,2.9,7.1c0,0.1,0,0.1,0,0.2v17.5c0,0.8,0.5,1.4,1.3,1.5c0.1,0,0.1,0,0.2,0h23.3c0.8,0,1.4-0.5,1.5-1.3
	c0-0.1,0-0.1,0-0.2V7.3c0-0.8-0.5-1.4-1.3-1.5c-0.1,0-0.1,0-0.2,0H4.4z"/>
<path id="Path_113" class="st0" d="M16,18.9c-0.3,0-0.6-0.1-0.9-0.3L0.6,8.4C0,7.9-0.1,7.1,0.3,6.4c0.5-0.6,1.4-0.7,2-0.3L16,15.7
	l13.7-9.6c0.7-0.4,1.5-0.3,2,0.3c0.4,0.7,0.3,1.5-0.3,2L16.9,18.6C16.6,18.8,16.3,18.9,16,18.9z"/>
</svg>
