<?xml version="1.0" encoding="utf-8"?>
<!-- Generator: Adobe Illustrator 24.3.0, SVG Export Plug-In . SVG Version: 6.00 Build 0)  -->
<svg version="1.1" id="Layer_1" xmlns="http://www.w3.org/2000/svg" xmlns:xlink="http://www.w3.org/1999/xlink" x="0px" y="0px"
	 viewBox="0 0 32 32" style="enable-background:new 0 0 32 32;" xml:space="preserve">
<style type="text/css">
	.st0{fill:#0A3641;}
	.st1{fill:#FAF8F5;}
</style>
<rect id="Rectangle_93" x="3.2" y="3.2" class="st0" width="25.6" height="28.8"/>
<path id="facebook-square" class="st1" d="M28.6,0H3.4C1.5,0,0,1.5,0,3.4l0,0v25.1c0,2,1.5,3.5,3.4,3.5l0,0h9.8V21.1H8.7V16h4.5
	v-3.9c0-4.4,2.6-6.9,6.7-6.9c1.3,0,2.7,0.1,4,0.3v4.4h-2.2c-1.4-0.2-2.7,0.8-2.9,2.2c0,0.2,0,0.4,0,0.6V16h4.9l-0.8,5.1h-4.1V32h9.8
	c1.9,0,3.4-1.5,3.4-3.4l0,0V3.4C32,1.5,30.5,0,28.6,0L28.6,0z"/>
</svg>
