<?xml version="1.0" encoding="utf-8"?>
<!-- Generator: Adobe Illustrator 24.3.0, SVG Export Plug-In . SVG Version: 6.00 Build 0)  -->
<svg version="1.1" id="Layer_1" xmlns="http://www.w3.org/2000/svg" xmlns:xlink="http://www.w3.org/1999/xlink" x="0px" y="0px"
	 viewBox="0 0 32 32" style="enable-background:new 0 0 32 32;" xml:space="preserve">
<style type="text/css">
	.st0{fill:#0A3641;}
	.st1{fill:#FAF8F5;}
</style>
<rect id="Rectangle_95" x="2.1" y="2.1" class="st0" width="27.7" height="27.7"/>
<path id="instagram-square" class="st1" d="M16,12.2c-2.1,0-3.8,1.7-3.8,3.8s1.7,3.8,3.8,3.8c2.1,0,3.8-1.7,3.8-3.8
	C19.8,13.9,18.1,12.2,16,12.2C16,12.2,16,12.2,16,12.2z M24.9,9.3c-0.4-1-1.2-1.8-2.2-2.2c-1.5-0.6-5.1-0.5-6.7-0.5
	c-1.7,0-5.2-0.1-6.7,0.5c-1,0.4-1.8,1.2-2.2,2.2c-0.6,1.5-0.5,5.1-0.5,6.7s-0.1,5.2,0.5,6.7c0.4,1,1.2,1.8,2.2,2.2
	c1.5,0.6,5.1,0.5,6.7,0.5s5.2,0.1,6.7-0.5c1-0.4,1.8-1.2,2.2-2.2c0.6-1.5,0.5-5.1,0.5-6.7S25.5,10.8,24.9,9.3L24.9,9.3z M16,21.9
	c-3.2,0-5.8-2.6-5.8-5.9s2.6-5.8,5.9-5.8s5.8,2.6,5.8,5.9c0,1.5-0.6,3-1.7,4.1C19,21.2,17.6,21.9,16,21.9z M22.1,11.3
	c-0.8,0-1.4-0.6-1.4-1.4s0.6-1.4,1.4-1.4c0.8,0,1.4,0.6,1.4,1.4c0,0.4-0.1,0.7-0.4,1C22.8,11.1,22.5,11.3,22.1,11.3z M28.6,0H3.4
	C1.5,0,0,1.5,0,3.4c0,0,0,0,0,0v25.1C0,30.5,1.5,32,3.4,32c0,0,0,0,0,0h25.1c1.9,0,3.4-1.5,3.4-3.4v0V3.4C32,1.5,30.5,0,28.6,0
	C28.6,0,28.6,0,28.6,0z M27.3,20.7c0,1.8-0.6,3.5-1.8,4.8c-1.3,1.2-3,1.9-4.8,1.8c-1.9,0.1-7.5,0.1-9.4,0c-1.8,0-3.5-0.6-4.8-1.8
	c-1.2-1.3-1.9-3-1.9-4.8c-0.1-1.9-0.1-7.5,0-9.4c0-1.8,0.6-3.5,1.9-4.8c1.3-1.2,3-1.9,4.8-1.8c1.9-0.1,7.5-0.1,9.4,0
	c1.8,0,3.5,0.6,4.8,1.8c1.2,1.3,1.9,3,1.8,4.8C27.5,13.2,27.5,18.8,27.3,20.7z"/>
</svg>
