<?xml version="1.0" encoding="utf-8"?>
<!-- Generator: Adobe Illustrator 25.0.0, SVG Export Plug-In . SVG Version: 6.00 Build 0)  -->
<svg version="1.1" id="Layer_1" xmlns="http://www.w3.org/2000/svg" xmlns:xlink="http://www.w3.org/1999/xlink" x="0px" y="0px"
	 viewBox="0 0 80 80" style="enable-background:new 0 0 80 80;" xml:space="preserve">
<style type="text/css">
	.st0{fill:#FFFFFF;}
	.st1{fill:#E6A751;}
</style>
<g>
	<g>
		<path class="st0" d="M59,72.9c-0.8,0.5-1.7,0.8-2.7,1.1c-0.9,0.2-1.9,0.3-2.9,0.3c-1.9,0-3.8-0.5-5.6-1.1c-3.6-1.3-6.9-3.4-10-5.8
			c-6-4.8-11.1-10.8-15.2-17.4c-4.1-6.6-7.3-13.8-8.9-21.6c-0.7-3.9-1.1-8-0.4-12.1c0.4-2,0.9-4.1,2-6.1c0.5-1,1.2-1.9,2-2.7
			C18.1,6.7,19,6,20,5.4c1-0.6,2.1-1,3.2-1.3c1.1-0.2,2.2-0.4,3.3-0.3c2.2,0,4.3,0.6,6.2,1.3C36.7,6.6,40,8.9,43,11.5
			c6,5.2,10.6,11.7,14.3,18.5c3.6,6.9,6.3,14.2,7.5,21.9c0.6,3.8,0.7,7.7,0,11.5c-0.4,1.9-0.9,3.8-1.9,5.4c-0.5,0.8-1.1,1.6-1.7,2.3
			C60.6,71.8,59.8,72.4,59,72.9z M59,72.9c0.8-0.5,1.6-1.1,2.2-1.8c0.6-0.7,1.2-1.5,1.7-2.3c0.9-1.7,1.5-3.5,1.8-5.4
			c0.6-3.8,0.3-7.7-0.4-11.4c-1.5-7.5-4.7-14.6-8.7-21c-4-6.4-9-12.3-14.7-16.9c-2.9-2.3-6.1-4.2-9.4-5.4c-3.3-1.2-6.8-1.4-9.5,0.1
			c-2.7,1.5-4.2,4.7-4.9,8.1c-0.6,3.5-0.5,7.2,0,10.8c1.1,7.3,3.7,14.5,7.2,21.2c3.6,6.7,8.1,12.9,13.8,18c2.9,2.5,6.1,4.7,9.7,6.1
			c1.8,0.7,3.7,1.1,5.6,1.2c1,0,1.9-0.1,2.8-0.3C57.3,73.7,58.2,73.4,59,72.9z"/>
	</g>
	<g>
		<path class="st0" d="M2,40c0-1,0.1-1.9,0.4-2.8c0.3-0.9,0.7-1.8,1.2-2.6c1-1.7,2.3-3.1,3.8-4.3c2.9-2.5,6.4-4.3,10-5.7
			c7.2-2.8,14.9-4.2,22.7-4.5c7.8-0.3,15.7,0.6,23.2,3.1c3.7,1.3,7.4,3,10.7,5.7c1.6,1.3,3.1,2.9,4.2,4.8c0.6,0.9,1,2,1.4,3.1
			c0.3,1.1,0.5,2.2,0.5,3.4c0,1.2-0.2,2.3-0.5,3.4c-0.4,1.1-0.8,2.1-1.4,3.1c-1.1,1.9-2.6,3.4-4.2,4.8c-3.2,2.6-6.9,4.3-10.7,5.7
			C55.7,59.4,47.8,60.3,40,60c-7.8-0.3-15.5-1.6-22.7-4.5c-3.6-1.4-7-3.2-10-5.7c-1.5-1.3-2.8-2.7-3.8-4.3c-0.5-0.8-0.9-1.7-1.2-2.6
			C2.1,41.9,2,41,2,40z M2,40c0,1,0.2,1.9,0.4,2.8c0.3,0.9,0.7,1.8,1.2,2.6c1,1.6,2.3,3,3.8,4.3c3,2.4,6.5,4.1,10.1,5.3
			c7.2,2.4,14.9,3.2,22.5,3c7.6-0.3,15.1-1.6,22-4.3c3.4-1.4,6.7-3.1,9.4-5.4c2.7-2.2,4.7-5.2,4.6-8.3c0.1-3.1-1.9-6-4.6-8.3
			c-2.7-2.3-6-4-9.4-5.4c-6.9-2.7-14.4-4-22-4.3c-7.6-0.3-15.3,0.5-22.5,3c-3.6,1.3-7.1,2.9-10.1,5.3c-1.5,1.2-2.8,2.6-3.8,4.3
			c-0.5,0.8-0.9,1.7-1.2,2.6C2.2,38.1,2,39,2,40z"/>
	</g>
	<g>
		<circle class="st1" cx="40" cy="40" r="12"/>
	</g>
</g>
</svg>
