<?xml version="1.0" encoding="utf-8"?>
<!-- Generator: Adobe Illustrator 24.3.0, SVG Export Plug-In . SVG Version: 6.00 Build 0)  -->
<svg version="1.1" id="Layer_1" xmlns="http://www.w3.org/2000/svg" xmlns:xlink="http://www.w3.org/1999/xlink" x="0px" y="0px"
	 viewBox="0 0 32 32" style="enable-background:new 0 0 32 32;" xml:space="preserve">
<style type="text/css">
	.st0{fill:#0A3641;}
	.st1{fill:#FAF8F5;}
</style>
<rect id="Rectangle_96" x="3.2" y="3.2" class="st0" width="25.6" height="28.8"/>
<path id="pinterest-square" class="st1" d="M32,3.4v25.1c0,1.9-1.5,3.4-3.4,3.4H11c0.8-1.3,1.5-2.7,2-4.2c0.2-0.8,1.1-4.2,1.1-4.2
	c0.9,1.3,2.4,2.1,4,2c5.3,0,9.1-4.9,9.1-10.9c0-5.8-4.7-10.1-10.8-10.1C8.8,4.6,4.8,9.7,4.8,15.2c0,2.6,1.4,5.8,3.6,6.8
	c0.3,0.2,0.5,0.1,0.6-0.2c0.1-0.2,0.4-1.4,0.5-2c0.1-0.2,0-0.4-0.1-0.5c-0.8-1.2-1.3-2.6-1.3-4c0-4.2,3.4-7.6,7.6-7.6
	c0.1,0,0.2,0,0.4,0c3.8-0.2,7.1,2.7,7.3,6.5c0,0.2,0,0.4,0,0.6c0,4.7-2.4,8-5.5,8c-1.4,0.1-2.6-1-2.7-2.4c0-0.3,0-0.5,0.1-0.8
	c0.5-2.1,1.4-4.3,1.4-5.8c0-3.8-5.4-3.3-5.4,1.8c0,0.9,0.2,1.8,0.5,2.6c-2.2,9.5-2.6,9.6-2.1,13.8L9.8,32H3.4C1.5,32,0,30.5,0,28.6
	V3.4C0,1.5,1.5,0,3.4,0h25.1C30.5,0,32,1.5,32,3.4z"/>
</svg>
