<?xml version="1.0" encoding="utf-8"?>
<!-- Generator: Adobe Illustrator 24.3.0, SVG Export Plug-In . SVG Version: 6.00 Build 0)  -->
<svg version="1.1" id="Layer_1" xmlns="http://www.w3.org/2000/svg" xmlns:xlink="http://www.w3.org/1999/xlink" x="0px" y="0px"
	 viewBox="0 0 32 32" style="enable-background:new 0 0 32 32;" xml:space="preserve">
<style type="text/css">
	.st0{display:none;}
	.st1{display:inline;}
	.st2{fill:#FBF9F6;}
	.st3{display:inline;fill-rule:evenodd;clip-rule:evenodd;fill:#FBF9F6;}
	.st4{fill:#0A3641;}
	.st5{fill:#FAF8F5;}
</style>
<g id="Layer_1_1_">
	<g class="st0">
		<g id="Path_54" class="st1">
			<path class="st2" d="M12,31.3c-1.6,0-2.8-1.3-2.8-2.8s1.3-2.8,2.8-2.8s2.8,1.3,2.8,2.8S13.6,31.3,12,31.3z"/>
		</g>
		<g id="Path_55" class="st1">
			<path class="st2" d="M26.5,31.3c-1.6,0-2.8-1.3-2.8-2.8s1.3-2.8,2.8-2.8s2.8,1.3,2.8,2.8S28.1,31.3,26.5,31.3z"/>
		</g>
		<g id="Path_56" class="st1">
			<path class="st2" d="M12.9,23.4c-1.9,0-3.6-1.4-4-3.3l-2.2-11V9L5.5,3.7h-4C0.7,3.7,0,3,0,2.2s0.7-1.5,1.5-1.5h5.3
				c0.7,0,1.3,0.5,1.5,1.2l1.1,5.4h21.2c0.4,0,0.9,0.2,1.2,0.5C31.9,8.1,32.1,8.6,32,9l-2.1,11.1c-0.4,2-2.1,3.4-4.1,3.3H12.9
				L12.9,23.4z M9.9,10.2l1.9,9.3c0.1,0.5,0.6,0.9,1.1,0.9h12.8c0.6,0,1.1-0.4,1.2-0.9l1.8-9.3H9.9z"/>
		</g>
	</g>
	<g id="Icon_feather-search" transform="translate(-3 -3)">
		<g id="Path_57">
			<path class="st2" d="M17.4,31.8C9.5,31.8,3,25.3,3,17.4S9.5,3,17.4,3s14.4,6.5,14.4,14.4S25.3,31.8,17.4,31.8z M17.4,6
				C11.1,6,6,11.1,6,17.4s5.1,11.4,11.4,11.4s11.4-5.1,11.4-11.4S23.7,6,17.4,6z"/>
		</g>
		<g id="Path_58">
			<path class="st2" d="M33.5,35c-0.4,0-0.8-0.1-1.1-0.4l-7-7c-0.6-0.6-0.6-1.5,0-2.1s1.5-0.6,2.1,0l7,7c0.6,0.6,0.6,1.5,0,2.1
				C34.3,34.9,33.9,35,33.5,35z"/>
		</g>
	</g>
	<g class="st0">
		<path class="st3" d="M30.5,17.5h-29C0.7,17.5,0,16.8,0,16l0,0c0-0.8,0.7-1.5,1.5-1.5h29c0.8,0,1.5,0.7,1.5,1.5l0,0
			C32,16.8,31.3,17.5,30.5,17.5z"/>
		<path class="st3" d="M30.5,29.5h-29C0.7,29.5,0,28.8,0,28l0,0c0-0.8,0.7-1.5,1.5-1.5h29c0.8,0,1.5,0.7,1.5,1.5l0,0
			C32,28.8,31.3,29.5,30.5,29.5z"/>
		<path class="st3" d="M30.5,5.5h-29C0.7,5.5,0,4.8,0,4l0,0c0-0.8,0.7-1.5,1.5-1.5h29C31.3,2.5,32,3.2,32,4l0,0
			C32,4.8,31.3,5.5,30.5,5.5z"/>
	</g>
</g>
<rect id="Rectangle_94" x="2.1" y="2.1" class="st4" width="27.7" height="27.7"/>
<path id="twitter-square" class="st5" d="M28.6,0H3.4C1.5,0,0,1.5,0,3.4v25.1C0,30.5,1.5,32,3.4,32h25.1c1.9,0,3.4-1.5,3.4-3.4V3.4
	C32,1.5,30.5,0,28.6,0z M25.1,11.3c0,0.2,0,0.4,0,0.6c0.1,7.3-5.8,13.3-13.1,13.3c-0.1,0-0.1,0-0.2,0c-2.5,0-5-0.7-7.2-2.1
	c0.4,0,0.8,0.1,1.1,0.1c2.1,0,4.2-0.7,5.8-2c-2,0-3.8-1.3-4.4-3.3c0.7,0.1,1.4,0.1,2.1-0.1c-2.2-0.4-3.8-2.4-3.8-4.6v-0.1
	c0.6,0.4,1.4,0.6,2.1,0.6C6.3,13,5.5,11.5,5.5,9.9c0-0.8,0.2-1.6,0.6-2.4c2.4,2.9,5.9,4.7,9.7,4.9c-0.6-2.5,1-5,3.5-5.6
	C21,6.5,22.7,7,23.8,8.2c1-0.2,2.1-0.6,3-1.1c-0.3,1.1-1.1,2-2.1,2.6c0.9-0.1,1.8-0.4,2.7-0.7C26.8,9.9,26,10.7,25.1,11.3L25.1,11.3
	z"/>
</svg>
