<?xml version="1.0" encoding="utf-8"?>
<!-- Generator: Adobe Illustrator 24.3.0, SVG Export Plug-In . SVG Version: 6.00 Build 0)  -->
<svg version="1.1" id="Layer_1" xmlns="http://www.w3.org/2000/svg" xmlns:xlink="http://www.w3.org/1999/xlink" x="0px" y="0px"
	 viewBox="0 0 32 32" style="enable-background:new 0 0 32 32;" xml:space="preserve">
<style type="text/css">
	.st0{fill:#0A3641;}
	.st1{fill:#FAF8F5;}
</style>
<rect id="Rectangle_97" x="2.1" y="2.1" class="st0" width="27.7" height="27.7"/>
<path id="youtube-square" class="st1" d="M13.3,12.1l6.8,3.9l-6.8,3.9C13.3,19.9,13.3,12.1,13.3,12.1z M32,3.4v25.1
	c0,1.9-1.5,3.4-3.4,3.4H3.4C1.5,32,0,30.5,0,28.6V3.4C0,1.5,1.5,0,3.4,0h25.1C30.5,0,32,1.5,32,3.4z M29,16c0-2.1-0.2-4.2-0.5-6.3
	c-0.3-1.1-1.2-2-2.3-2.3C24.1,6.9,16,6.9,16,6.9s-8.1,0-10.2,0.5c-1.1,0.3-2,1.2-2.3,2.3C3.2,11.8,3,13.9,3,16
	c0,2.1,0.2,4.2,0.5,6.3c0.3,1.1,1.2,2,2.3,2.3c2,0.5,10.2,0.5,10.2,0.5s8.1,0,10.2-0.5c1.1-0.3,2-1.2,2.3-2.3
	C28.8,20.2,29,18.1,29,16L29,16z"/>
</svg>
